<?xml version="1.0" encoding="iso-8859-1"?>
<!-- Generator: Adobe Illustrator 19.0.0, SVG Export Plug-In . SVG Version: 6.00 Build 0)  -->
<svg version="1.1" id="Capa_1" xmlns="http://www.w3.org/2000/svg" xmlns:xlink="http://www.w3.org/1999/xlink" x="0px" y="0px"
	 viewBox="0 0 511.999 511.999" style="enable-background:new 0 0 511.999 511.999;" xml:space="preserve">
<g>
	<g>
		<path d="M195.394,0v39.61c0,2.23,1.814,4.043,4.043,4.043h113.125c2.229,0,4.043-1.813,4.043-4.043V0H195.394z"/>
	</g>
</g>
<g>
	<g>
		<polygon points="196.828,163.668 186.381,202.023 207.275,202.023 		"/>
	</g>
</g>
<g>
	<g>
		<path d="M283.268,156.083H269.1v30.197h14.168c8.587,0,12.88-4.769,12.88-14.311v-1.574
			C296.148,160.856,291.854,156.083,283.268,156.083z"/>
	</g>
</g>
<g>
	<g>
		<path d="M313.152,290.358H197.441c-8.23,0-14.926,6.696-14.926,14.926v27.657c0,8.23,6.696,14.926,14.926,14.926h115.711
			c8.23,0,14.926-6.696,14.926-14.926v-27.657C328.078,297.054,321.383,290.358,313.152,290.358z M227.921,320.585
			c-0.05,0.49-0.12,0.98-0.22,1.46c-0.09,0.48-0.22,0.96-0.36,1.42c-0.14,0.47-0.31,0.93-0.489,1.38c-0.19,0.46-0.4,0.9-0.631,1.33
			c-0.229,0.43-0.479,0.86-0.75,1.26c-0.27,0.41-0.569,0.81-0.88,1.19c-0.31,0.38-0.64,0.75-0.989,1.09
			c-0.341,0.35-0.711,0.68-1.091,1c-0.38,0.3-0.779,0.6-1.189,0.87c-0.4,0.27-0.83,0.52-1.26,0.75c-0.431,0.23-0.881,0.44-1.33,0.63
			c-0.45,0.19-0.91,0.35-1.38,0.49c-0.471,0.15-0.95,0.27-1.421,0.36c-0.479,0.1-0.97,0.18-1.46,0.22
			c-0.489,0.05-0.979,0.08-1.47,0.08s-0.99-0.03-1.479-0.08c-0.48-0.04-0.971-0.12-1.46-0.22c-0.471-0.09-0.95-0.21-1.421-0.36
			c-0.47-0.14-0.93-0.3-1.38-0.49c-0.449-0.19-0.899-0.4-1.33-0.63c-0.43-0.23-0.859-0.48-1.26-0.75c-0.41-0.27-0.81-0.57-1.18-0.87
			c-0.39-0.32-0.75-0.65-1.101-1c-0.35-0.34-0.68-0.71-0.989-1.09c-0.311-0.38-0.601-0.78-0.88-1.19
			c-0.261-0.4-0.521-0.83-0.75-1.26c-0.23-0.43-0.44-0.87-0.62-1.33c-0.19-0.45-0.36-0.91-0.5-1.38
			c-0.141-0.46-0.261-0.94-0.36-1.42s-0.17-0.97-0.22-1.46c-0.05-0.49-0.07-0.98-0.07-1.47c0-0.49,0.021-0.99,0.07-1.48
			c0.05-0.48,0.12-0.97,0.22-1.45s0.22-0.96,0.36-1.43c0.14-0.46,0.31-0.93,0.5-1.38c0.18-0.45,0.39-0.9,0.62-1.33
			c0.229-0.43,0.489-0.85,0.75-1.26c0.279-0.41,0.569-0.8,0.88-1.18c0.31-0.38,0.64-0.75,0.989-1.1
			c0.351-0.34,0.711-0.68,1.101-0.99c0.37-0.31,0.77-0.6,1.18-0.87c0.4-0.27,0.83-0.53,1.26-0.76c0.431-0.22,0.881-0.44,1.33-0.62
			c0.45-0.19,0.91-0.36,1.38-0.5c0.471-0.14,0.95-0.26,1.421-0.36c0.489-0.09,0.979-0.17,1.46-0.22c0.979-0.1,1.97-0.1,2.949,0
			c0.49,0.05,0.98,0.13,1.46,0.22c0.471,0.1,0.95,0.22,1.421,0.36c0.47,0.14,0.93,0.31,1.38,0.5c0.449,0.18,0.899,0.4,1.33,0.62
			c0.43,0.23,0.859,0.49,1.26,0.76c0.41,0.27,0.81,0.56,1.189,0.87s0.75,0.65,1.091,0.99c0.35,0.35,0.68,0.72,0.989,1.1
			c0.311,0.38,0.61,0.77,0.88,1.18c0.271,0.41,0.521,0.83,0.75,1.26c0.23,0.43,0.44,0.88,0.631,1.33c0.18,0.45,0.35,0.92,0.489,1.38
			c0.141,0.47,0.271,0.95,0.36,1.43c0.1,0.48,0.17,0.97,0.22,1.45c0.05,0.49,0.08,0.99,0.08,1.48S227.971,320.095,227.921,320.585z
			 M269.925,320.585c-0.05,0.49-0.12,0.98-0.22,1.46c-0.09,0.48-0.22,0.96-0.36,1.42c-0.14,0.47-0.31,0.93-0.489,1.38
			c-0.19,0.46-0.4,0.9-0.631,1.33c-0.229,0.43-0.479,0.86-0.75,1.26c-0.27,0.41-0.569,0.81-0.88,1.19
			c-0.31,0.38-0.64,0.75-0.989,1.1c-2.79,2.79-6.661,4.39-10.602,4.39c-0.49,0-0.99-0.03-1.479-0.08
			c-0.49-0.04-0.971-0.12-1.46-0.22c-0.471-0.09-0.95-0.21-1.421-0.36c-0.47-0.14-0.93-0.3-1.38-0.49
			c-0.449-0.19-0.899-0.4-1.33-0.63c-0.43-0.23-0.85-0.48-1.26-0.75c-0.41-0.27-0.81-0.57-1.18-0.87
			c-0.39-0.32-0.75-0.65-1.101-0.99c-0.35-0.35-0.68-0.72-0.989-1.1c-0.311-0.38-0.601-0.78-0.88-1.19
			c-0.261-0.4-0.521-0.83-0.75-1.26c-0.23-0.43-0.44-0.87-0.631-1.33c-0.18-0.45-0.35-0.91-0.489-1.38
			c-0.141-0.46-0.271-0.94-0.36-1.42c-0.1-0.48-0.17-0.97-0.22-1.46c-0.05-0.49-0.08-0.98-0.08-1.47c0-0.49,0.03-0.99,0.08-1.48
			c0.05-0.48,0.12-0.97,0.22-1.45c0.09-0.48,0.22-0.96,0.36-1.43c0.14-0.46,0.31-0.93,0.489-1.38c0.19-0.45,0.4-0.9,0.631-1.33
			c0.229-0.43,0.489-0.85,0.75-1.26c0.279-0.41,0.569-0.8,0.88-1.18c0.31-0.38,0.64-0.75,0.989-1.1
			c0.351-0.34,0.711-0.68,1.101-0.99c0.37-0.31,0.77-0.6,1.18-0.87c0.41-0.27,0.83-0.53,1.26-0.76c0.431-0.22,0.881-0.44,1.33-0.62
			c0.45-0.19,0.91-0.36,1.38-0.5c0.471-0.14,0.95-0.26,1.421-0.36c0.489-0.09,0.97-0.17,1.46-0.22c0.979-0.09,1.97-0.09,2.949,0
			c0.49,0.05,0.98,0.13,1.46,0.22c0.471,0.1,0.95,0.22,1.421,0.36c0.47,0.14,0.93,0.31,1.38,0.5c0.449,0.18,0.899,0.4,1.33,0.62
			c0.43,0.23,0.859,0.49,1.26,0.76c0.41,0.27,0.81,0.56,1.189,0.87s0.75,0.65,1.091,0.99c0.35,0.35,0.68,0.72,0.989,1.1
			c0.311,0.38,0.61,0.77,0.88,1.18c0.271,0.41,0.521,0.83,0.75,1.26c0.23,0.43,0.44,0.88,0.631,1.33c0.18,0.45,0.35,0.92,0.489,1.38
			c0.141,0.47,0.271,0.95,0.36,1.43c0.1,0.48,0.17,0.97,0.22,1.45c0.05,0.49,0.08,0.99,0.08,1.48
			C270.005,319.605,269.975,320.095,269.925,320.585z M312.928,320.585c-0.05,0.49-0.12,0.98-0.22,1.46
			c-0.09,0.48-0.22,0.96-0.36,1.42c-0.14,0.47-0.31,0.93-0.489,1.38c-0.19,0.46-0.4,0.9-0.631,1.33
			c-0.229,0.43-0.479,0.86-0.75,1.26c-0.27,0.41-0.569,0.81-0.88,1.19c-0.31,0.38-0.64,0.75-0.989,1.09
			c-0.341,0.35-0.711,0.68-1.091,1c-0.38,0.3-0.779,0.6-1.189,0.87c-0.4,0.27-0.83,0.52-1.26,0.75c-0.431,0.23-0.881,0.44-1.33,0.63
			c-0.45,0.19-0.91,0.35-1.38,0.5c-0.471,0.14-0.95,0.26-1.421,0.36c-0.479,0.09-0.97,0.17-1.46,0.21
			c-0.489,0.05-0.979,0.08-1.47,0.08s-0.99-0.03-1.479-0.08c-0.48-0.04-0.971-0.12-1.46-0.21c-0.471-0.1-0.95-0.22-1.421-0.36
			c-0.47-0.15-0.93-0.31-1.38-0.5c-0.449-0.19-0.899-0.4-1.33-0.63c-0.43-0.23-0.859-0.48-1.26-0.75
			c-0.41-0.27-0.81-0.57-1.189-0.87c-0.38-0.32-0.75-0.65-1.091-1c-0.35-0.34-0.68-0.71-0.989-1.09
			c-0.311-0.38-0.601-0.78-0.88-1.19c-0.271-0.4-0.521-0.83-0.75-1.26c-0.23-0.43-0.44-0.87-0.631-1.33
			c-0.18-0.45-0.35-0.91-0.489-1.38c-0.141-0.46-0.271-0.94-0.36-1.42c-0.1-0.48-0.17-0.97-0.22-1.46
			c-0.05-0.49-0.07-0.98-0.07-1.47c0-0.49,0.021-0.99,0.07-1.48c0.05-0.48,0.12-0.97,0.22-1.45c0.09-0.48,0.22-0.96,0.36-1.43
			c0.14-0.46,0.31-0.93,0.489-1.38c0.19-0.45,0.4-0.9,0.631-1.33c0.229-0.43,0.479-0.85,0.75-1.26c0.279-0.41,0.569-0.81,0.88-1.18
			c0.31-0.38,0.64-0.75,0.989-1.1c0.341-0.35,0.711-0.68,1.091-0.99c0.38-0.31,0.779-0.6,1.189-0.87c0.4-0.27,0.83-0.53,1.26-0.76
			c0.431-0.23,0.881-0.44,1.33-0.62c0.45-0.19,0.91-0.36,1.38-0.5c0.471-0.14,0.95-0.26,1.421-0.36c0.489-0.09,0.979-0.17,1.46-0.22
			c0.979-0.1,1.97-0.1,2.949,0c0.49,0.05,0.98,0.13,1.46,0.22c0.471,0.1,0.95,0.22,1.421,0.36c0.47,0.14,0.93,0.31,1.38,0.5
			c0.449,0.18,0.899,0.39,1.33,0.62c0.43,0.23,0.859,0.49,1.26,0.76c0.41,0.27,0.81,0.56,1.189,0.87s0.75,0.64,1.091,0.99
			c0.35,0.35,0.68,0.72,0.989,1.1c0.311,0.37,0.61,0.77,0.88,1.18c0.271,0.41,0.521,0.83,0.75,1.26c0.23,0.43,0.44,0.88,0.631,1.33
			c0.18,0.45,0.35,0.92,0.489,1.38c0.141,0.47,0.271,0.95,0.36,1.43c0.1,0.48,0.17,0.97,0.22,1.45c0.05,0.49,0.08,0.99,0.08,1.48
			S312.978,320.095,312.928,320.585z"/>
	</g>
</g>
<g>
	<g>
		<path d="M363.018,0h-16.409v39.61c0,18.772-15.272,34.046-34.046,34.046H199.437c-18.773,0-34.046-15.272-34.046-34.046V0h-16.409
			C117.452,0,91.8,25.651,91.8,57.181v397.636c0,31.53,25.651,57.181,57.182,57.181h214.036c31.529,0,57.181-25.651,57.181-57.181
			V57.181C420.199,25.651,394.547,0,363.018,0z M328.203,143.346c0-2.194,1.096-3.864,3.291-5.009
			c2.194-1.145,4.816-1.717,7.872-1.717c3.052,0,5.675,0.572,7.872,1.717c2.193,1.145,3.291,2.815,3.291,5.009v91.02
			c0,2.196-1.098,3.889-3.291,5.081c-2.196,1.194-4.819,1.789-7.872,1.789c-3.055,0-5.677-0.595-7.872-1.789
			c-2.195-1.192-3.291-2.885-3.291-5.081V143.346z M246.773,143.346c0-1.812,0.763-3.385,2.29-4.723
			c1.524-1.335,3.528-2.003,6.01-2.003h29.624c10.209,0,18.391,2.647,24.545,7.943s9.23,13.62,9.23,24.973v0.716
			c0,11.355-3.22,19.728-9.66,25.116c-6.44,5.391-14.955,8.086-25.546,8.086h-14.168v30.912c0,2.196-1.098,3.889-3.291,5.081
			c-2.196,1.194-4.819,1.789-7.872,1.789c-3.055,0-5.677-0.595-7.872-1.789c-2.195-1.192-3.291-2.885-3.291-5.081V143.346z
			 M155.611,230.502l26.619-87.299c0.763-2.384,2.505-4.222,5.224-5.51c2.719-1.288,5.843-1.932,9.374-1.932
			c3.528,0,6.655,0.644,9.374,1.932c2.719,1.288,4.459,3.126,5.224,5.51l26.762,87.299c0.19,0.765,0.286,1.288,0.286,1.574
			c0,2.482-1.552,4.628-4.65,6.441c-3.102,1.813-6.321,2.719-9.66,2.719c-4.104,0-6.536-1.382-7.3-4.15l-4.865-17.889h-30.196
			l-4.866,17.889c-0.765,2.768-3.197,4.15-7.299,4.15c-3.341,0-6.562-0.906-9.66-2.719c-3.102-1.812-4.651-3.958-4.651-6.441
			C155.325,231.79,155.419,231.267,155.611,230.502z M295.042,465.713h-78.084c-8.285,0-15.001-6.717-15.001-15.001
			c0-8.285,6.717-15.001,15.001-15.001h78.084c8.285,0,15.001,6.717,15.001,15.001C310.043,458.997,303.326,465.713,295.042,465.713
			z M358.081,332.942c0,24.773-20.155,44.929-44.928,44.929H197.441c-24.773,0-44.928-20.155-44.928-44.929v-27.658
			c0-24.773,20.155-44.928,44.928-44.928h115.711c24.773,0,44.929,20.155,44.929,44.928V332.942z"/>
	</g>
</g>
<g>
</g>
<g>
</g>
<g>
</g>
<g>
</g>
<g>
</g>
<g>
</g>
<g>
</g>
<g>
</g>
<g>
</g>
<g>
</g>
<g>
</g>
<g>
</g>
<g>
</g>
<g>
</g>
<g>
</g>
</svg>
